<svg xmlns="http://www.w3.org/2000/svg" width="1000" height="1662" viewBox="0 0 1000 1662" role="img" aria-labelledby="title desc"><title id="title">Go library absolute time by measured operation</title><desc id="desc">Absolute geometric-mean time per operation over seven corpus files. Each operation has its own zero-based scale; lower is faster. Regular rows show portable and SIMD compiler modes. Data (operation=portable/SIMD absolute time): simdjson valid=188 µs/84.8 µs typed-reused=320 µs/292 µs dynamic-owned=649 µs/607 µs encode=275 µs/221 µs; encoding/json valid=266 µs/260 µs typed-reused=1.01 ms/998 µs dynamic-owned=2.18 ms/2.16 ms encode=478 µs/478 µs; go-json valid=2.06 ms/2.06 ms typed-reused=448 µs/450 µs dynamic-owned=1.14 ms/1.14 ms encode=306 µs/305 µs; Segment valid=290 µs/287 µs typed-reused=656 µs/663 µs dynamic-owned=3.05 ms/3.05 ms encode=279 µs/278 µs; jsoniter valid=470 µs/468 µs typed-reused=679 µs/680 µs dynamic-owned=1.29 ms/1.30 ms encode=569 µs/566 µs; fastjson valid=274 µs/273 µs typed-reused=not measured dynamic-owned=not measured encode=not measured; encoding/json/v2 valid=not measured typed-reused=829 µs/778 µs dynamic-owned=1.27 ms/1.18 ms encode=451 µs/429 µs; Sonic (Go 1.26) valid=114 µs stable typed-reused=404 µs stable dynamic-owned=661 µs stable encode=479 µs stable. Source: benchmarks/results/latest.json. Snapshot 63eb4d72 · Apple M4 Max · darwin/arm64 · 6×300ms · Go 03845e30.</desc><style>
svg { color-scheme: light dark; }
text { fill:#24292f; font:15px -apple-system,BlinkMacSystemFont,"Segoe UI",sans-serif; }
.heading { font-size:20px; font-weight:500; }
.note { font-size:13px; }
.muted { fill:#57606a; }
.grid { stroke:#d0d7de; stroke-width:1; }
.baseline { stroke:#8c959f; stroke-width:2; }
.portable { fill:#8250df; }
.simd { fill:#0969da; }
.reference { fill:#8c959f; }
.peer { fill:#1a7f37; }
.cell { fill:#f6f8fa; }
@media (prefers-color-scheme: dark) {
text { fill:#f0f6fc; }
.muted { fill:#8c959f; }
.grid { stroke:#30363d; }
.baseline { stroke:#6e7681; }
.portable { fill:#bc8cff; }
.simd { fill:#58a6ff; }
.reference { fill:#8c959f; }
.peer { fill:#3fb950; }
.cell { fill:#161b22; }
}
</style><text class="heading" x="8" y="22">Go library time by measured operation</text><text class="muted note" x="8" y="43">Absolute geomean time/op across seven payloads · independent scales · lower is faster · 63eb4d72 · Apple M4 Max · darwin/arm64 · 6×300ms · Go 03845e30</text><rect class="portable" x="8" y="55" width="12" height="12" rx="2"/><text class="note" x="26" y="66">portable</text><rect class="simd" x="100" y="55" width="12" height="12" rx="2"/><text class="note" x="118" y="66">SIMD</text><rect class="reference" x="176" y="55" width="12" height="12" rx="2"/><text class="note" x="194" y="66">stable-only context</text><text x="16.0" y="100.0">Accepted-input scan</text><line class="grid" x1="196.0" y1="119.0" x2="196.0" y2="449.0"/><text class="muted note" x="196.0" y="115.0" text-anchor="middle">0 ns</text><line class="grid" x1="530.0" y1="119.0" x2="530.0" y2="449.0"/><text class="muted note" x="530.0" y="115.0" text-anchor="middle">1.25 ms</text><line class="grid" x1="864.0" y1="119.0" x2="864.0" y2="449.0"/><text class="muted note" x="864.0" y="115.0" text-anchor="middle">2.50 ms</text><text class="note" x="16.0" y="152.0">simdjson</text><rect class="portable" x="196.0" y="138.0" width="50.1" height="9" rx="2"/><text class="note" x="252.1" y="147.0">188 µs</text><rect class="simd" x="196.0" y="152.0" width="22.7" height="9" rx="2"/><text class="note" x="224.7" y="161.0">84.8 µs</text><text class="note" x="16.0" y="191.0">encoding/json</text><rect class="portable" x="196.0" y="177.0" width="71.2" height="9" rx="2"/><text class="note" x="273.2" y="186.0">266 µs</text><rect class="simd" x="196.0" y="191.0" width="69.6" height="9" rx="2"/><text class="note" x="271.6" y="200.0">260 µs</text><text class="note" x="16.0" y="230.0">go-json</text><rect class="portable" x="196.0" y="216.0" width="550.9" height="9" rx="2"/><text class="note" x="752.9" y="225.0">2.06 ms</text><rect class="simd" x="196.0" y="230.0" width="551.3" height="9" rx="2"/><text class="note" x="753.3" y="239.0">2.06 ms</text><text class="note" x="16.0" y="269.0">Segment</text><rect class="portable" x="196.0" y="255.0" width="77.4" height="9" rx="2"/><text class="note" x="279.4" y="264.0">290 µs</text><rect class="simd" x="196.0" y="269.0" width="76.7" height="9" rx="2"/><text class="note" x="278.7" y="278.0">287 µs</text><text class="note" x="16.0" y="308.0">jsoniter</text><rect class="portable" x="196.0" y="294.0" width="125.7" height="9" rx="2"/><text class="note" x="327.7" y="303.0">470 µs</text><rect class="simd" x="196.0" y="308.0" width="125.2" height="9" rx="2"/><text class="note" x="327.2" y="317.0">468 µs</text><text class="note" x="16.0" y="347.0">fastjson</text><rect class="portable" x="196.0" y="333.0" width="73.1" height="9" rx="2"/><text class="note" x="275.1" y="342.0">274 µs</text><rect class="simd" x="196.0" y="347.0" width="72.9" height="9" rx="2"/><text class="note" x="274.9" y="356.0">273 µs</text><text class="note" x="16.0" y="386.0">encoding/json/v2</text><text class="muted" x="202.0" y="386.0">—</text><text class="note" x="16.0" y="425.0">Sonic (Go 1.26)</text><rect class="reference" x="196.0" y="415.0" width="30.4" height="12" rx="2"/><text class="note" x="232.4" y="426.0">114 µs</text><text x="16.0" y="490.0">Typed owned decode (reused dst)</text><line class="grid" x1="196.0" y1="509.0" x2="196.0" y2="839.0"/><text class="muted note" x="196.0" y="505.0" text-anchor="middle">0 ns</text><line class="grid" x1="530.0" y1="509.0" x2="530.0" y2="839.0"/><text class="muted note" x="530.0" y="505.0" text-anchor="middle">625 µs</text><line class="grid" x1="864.0" y1="509.0" x2="864.0" y2="839.0"/><text class="muted note" x="864.0" y="505.0" text-anchor="middle">1.25 ms</text><text class="note" x="16.0" y="542.0">simdjson</text><rect class="portable" x="196.0" y="528.0" width="170.8" height="9" rx="2"/><text class="note" x="372.8" y="537.0">320 µs</text><rect class="simd" x="196.0" y="542.0" width="155.8" height="9" rx="2"/><text class="note" x="357.8" y="551.0">292 µs</text><text class="note" x="16.0" y="581.0">encoding/json</text><rect class="portable" x="196.0" y="567.0" width="540.1" height="9" rx="2"/><text class="note" x="742.1" y="576.0">1.01 ms</text><rect class="simd" x="196.0" y="581.0" width="533.3" height="9" rx="2"/><text class="note" x="735.3" y="590.0">998 µs</text><text class="note" x="16.0" y="620.0">go-json</text><rect class="portable" x="196.0" y="606.0" width="239.4" height="9" rx="2"/><text class="note" x="441.4" y="615.0">448 µs</text><rect class="simd" x="196.0" y="620.0" width="240.3" height="9" rx="2"/><text class="note" x="442.3" y="629.0">450 µs</text><text class="note" x="16.0" y="659.0">Segment</text><rect class="portable" x="196.0" y="645.0" width="350.8" height="9" rx="2"/><text class="note" x="552.8" y="654.0">656 µs</text><rect class="simd" x="196.0" y="659.0" width="354.0" height="9" rx="2"/><text class="note" x="556.0" y="668.0">663 µs</text><text class="note" x="16.0" y="698.0">jsoniter</text><rect class="portable" x="196.0" y="684.0" width="363.1" height="9" rx="2"/><text class="note" x="565.1" y="693.0">679 µs</text><rect class="simd" x="196.0" y="698.0" width="363.4" height="9" rx="2"/><text class="note" x="565.4" y="707.0">680 µs</text><text class="note" x="16.0" y="737.0">fastjson</text><text class="muted" x="202.0" y="737.0">—</text><text class="note" x="16.0" y="776.0">encoding/json/v2</text><rect class="portable" x="196.0" y="762.0" width="443.1" height="9" rx="2"/><text class="note" x="645.1" y="771.0">829 µs</text><rect class="simd" x="196.0" y="776.0" width="415.8" height="9" rx="2"/><text class="note" x="617.8" y="785.0">778 µs</text><text class="note" x="16.0" y="815.0">Sonic (Go 1.26)</text><rect class="reference" x="196.0" y="805.0" width="215.9" height="12" rx="2"/><text class="note" x="417.9" y="816.0">404 µs</text><text x="16.0" y="880.0">Dynamic owned decode</text><line class="grid" x1="196.0" y1="899.0" x2="196.0" y2="1229.0"/><text class="muted note" x="196.0" y="895.0" text-anchor="middle">0 ns</text><line class="grid" x1="530.0" y1="899.0" x2="530.0" y2="1229.0"/><text class="muted note" x="530.0" y="895.0" text-anchor="middle">2.00 ms</text><line class="grid" x1="864.0" y1="899.0" x2="864.0" y2="1229.0"/><text class="muted note" x="864.0" y="895.0" text-anchor="middle">4.00 ms</text><text class="note" x="16.0" y="932.0">simdjson</text><rect class="portable" x="196.0" y="918.0" width="108.4" height="9" rx="2"/><text class="note" x="310.4" y="927.0">649 µs</text><rect class="simd" x="196.0" y="932.0" width="101.4" height="9" rx="2"/><text class="note" x="303.4" y="941.0">607 µs</text><text class="note" x="16.0" y="971.0">encoding/json</text><rect class="portable" x="196.0" y="957.0" width="364.4" height="9" rx="2"/><text class="note" x="566.4" y="966.0">2.18 ms</text><rect class="simd" x="196.0" y="971.0" width="360.6" height="9" rx="2"/><text class="note" x="562.6" y="980.0">2.16 ms</text><text class="note" x="16.0" y="1010.0">go-json</text><rect class="portable" x="196.0" y="996.0" width="189.7" height="9" rx="2"/><text class="note" x="391.7" y="1005.0">1.14 ms</text><rect class="simd" x="196.0" y="1010.0" width="191.0" height="9" rx="2"/><text class="note" x="393.0" y="1019.0">1.14 ms</text><text class="note" x="16.0" y="1049.0">Segment</text><rect class="portable" x="196.0" y="1035.0" width="509.2" height="9" rx="2"/><text class="note" x="711.2" y="1044.0">3.05 ms</text><rect class="simd" x="196.0" y="1049.0" width="508.7" height="9" rx="2"/><text class="note" x="710.7" y="1058.0">3.05 ms</text><text class="note" x="16.0" y="1088.0">jsoniter</text><rect class="portable" x="196.0" y="1074.0" width="216.2" height="9" rx="2"/><text class="note" x="418.2" y="1083.0">1.29 ms</text><rect class="simd" x="196.0" y="1088.0" width="217.1" height="9" rx="2"/><text class="note" x="419.1" y="1097.0">1.30 ms</text><text class="note" x="16.0" y="1127.0">fastjson</text><text class="muted" x="202.0" y="1127.0">—</text><text class="note" x="16.0" y="1166.0">encoding/json/v2</text><rect class="portable" x="196.0" y="1152.0" width="212.5" height="9" rx="2"/><text class="note" x="414.5" y="1161.0">1.27 ms</text><rect class="simd" x="196.0" y="1166.0" width="197.1" height="9" rx="2"/><text class="note" x="399.1" y="1175.0">1.18 ms</text><text class="note" x="16.0" y="1205.0">Sonic (Go 1.26)</text><rect class="reference" x="196.0" y="1195.0" width="110.4" height="12" rx="2"/><text class="note" x="312.4" y="1206.0">661 µs</text><text x="16.0" y="1270.0">Owned encode</text><line class="grid" x1="196.0" y1="1289.0" x2="196.0" y2="1619.0"/><text class="muted note" x="196.0" y="1285.0" text-anchor="middle">0 ns</text><line class="grid" x1="530.0" y1="1289.0" x2="530.0" y2="1619.0"/><text class="muted note" x="530.0" y="1285.0" text-anchor="middle">375 µs</text><line class="grid" x1="864.0" y1="1289.0" x2="864.0" y2="1619.0"/><text class="muted note" x="864.0" y="1285.0" text-anchor="middle">750 µs</text><text class="note" x="16.0" y="1322.0">simdjson</text><rect class="portable" x="196.0" y="1308.0" width="245.3" height="9" rx="2"/><text class="note" x="447.3" y="1317.0">275 µs</text><rect class="simd" x="196.0" y="1322.0" width="196.6" height="9" rx="2"/><text class="note" x="398.6" y="1331.0">221 µs</text><text class="note" x="16.0" y="1361.0">encoding/json</text><rect class="portable" x="196.0" y="1347.0" width="425.6" height="9" rx="2"/><text class="note" x="627.6" y="1356.0">478 µs</text><rect class="simd" x="196.0" y="1361.0" width="425.6" height="9" rx="2"/><text class="note" x="627.6" y="1370.0">478 µs</text><text class="note" x="16.0" y="1400.0">go-json</text><rect class="portable" x="196.0" y="1386.0" width="272.3" height="9" rx="2"/><text class="note" x="474.3" y="1395.0">306 µs</text><rect class="simd" x="196.0" y="1400.0" width="271.7" height="9" rx="2"/><text class="note" x="473.7" y="1409.0">305 µs</text><text class="note" x="16.0" y="1439.0">Segment</text><rect class="portable" x="196.0" y="1425.0" width="248.6" height="9" rx="2"/><text class="note" x="450.6" y="1434.0">279 µs</text><rect class="simd" x="196.0" y="1439.0" width="247.6" height="9" rx="2"/><text class="note" x="449.6" y="1448.0">278 µs</text><text class="note" x="16.0" y="1478.0">jsoniter</text><rect class="portable" x="196.0" y="1464.0" width="506.9" height="9" rx="2"/><text class="note" x="708.9" y="1473.0">569 µs</text><rect class="simd" x="196.0" y="1478.0" width="503.7" height="9" rx="2"/><text class="note" x="705.7" y="1487.0">566 µs</text><text class="note" x="16.0" y="1517.0">fastjson</text><text class="muted" x="202.0" y="1517.0">—</text><text class="note" x="16.0" y="1556.0">encoding/json/v2</text><rect class="portable" x="196.0" y="1542.0" width="401.8" height="9" rx="2"/><text class="note" x="603.8" y="1551.0">451 µs</text><rect class="simd" x="196.0" y="1556.0" width="382.0" height="9" rx="2"/><text class="note" x="584.0" y="1565.0">429 µs</text><text class="note" x="16.0" y="1595.0">Sonic (Go 1.26)</text><rect class="reference" x="196.0" y="1585.0" width="426.5" height="12" rx="2"/><text class="note" x="628.5" y="1596.0">479 µs</text><text class="muted note" x="8" y="1654">Scan rows show accepted-input throughput, not rejection parity. JSON/v2 lacks scan; Sonic uses stable Go.</text></svg>
