<svg xmlns="http://www.w3.org/2000/svg" width="1100" height="488" viewBox="0 0 1100 488" role="img" aria-labelledby="title desc"><title id="title">Go library comparison by measured operation</title><desc id="desc">Geometric-mean speed relative to encoding/json across seven corpus files. Each regular cell shows portable then SIMD compiler modes. Higher is faster. Data (operation=value): simdjson valid=1.42x/3.07x typed-reused=3.16x/3.42x dynamic-owned=3.36x/3.55x encode=1.74x/2.16x; encoding/json valid=1.00x/1.00x typed-reused=1.00x/1.00x dynamic-owned=1.00x/1.00x encode=1.00x/1.00x; go-json valid=0.13x/0.13x typed-reused=2.26x/2.22x dynamic-owned=1.92x/1.89x encode=1.56x/1.57x; Segment valid=0.92x/0.91x typed-reused=1.54x/1.51x dynamic-owned=0.72x/0.71x encode=1.71x/1.72x; jsoniter valid=0.57x/0.56x typed-reused=1.49x/1.47x dynamic-owned=1.69x/1.66x encode=0.84x/0.85x; fastjson valid=0.97x/0.95x typed-reused=not measured dynamic-owned=not measured encode=not measured; encoding/json/v2 valid=not measured typed-reused=1.22x/1.25x dynamic-owned=1.74x/1.78x encode=1.00x/1.01x; Sonic (Go 1.26) valid=6.16x stable typed-reused=4.74x stable dynamic-owned=3.51x stable encode=0.76x stable. Source: benchmarks/results/latest.json. Snapshot 63eb4d72 · Apple M4 Max · darwin/arm64 · 6×300ms · Go 03845e30.</desc><style>
svg { color-scheme: light dark; }
text { fill:#24292f; font:13px -apple-system,BlinkMacSystemFont,"Segoe UI",sans-serif; }
.heading { font-size:17px; font-weight:500; }
.note { font-size:12px; }
.muted { fill:#57606a; }
.grid { stroke:#d0d7de; stroke-width:1; }
.baseline { stroke:#8c959f; stroke-width:2; }
.portable { fill:#8250df; }
.simd { fill:#0969da; }
.reference { fill:#8c959f; }
.peer { fill:#1a7f37; }
.cell { fill:#f6f8fa; }
@media (prefers-color-scheme: dark) {
text { fill:#f0f6fc; }
.muted { fill:#8c959f; }
.grid { stroke:#30363d; }
.baseline { stroke:#6e7681; }
.portable { fill:#bc8cff; }
.simd { fill:#58a6ff; }
.reference { fill:#8c959f; }
.peer { fill:#3fb950; }
.cell { fill:#161b22; }
}
</style><text class="heading" x="8" y="22">Go library comparison by measured operation</text><text class="muted note" x="8" y="43">Geomean speed vs matching encoding/json · portable / SIMD · higher is faster · 63eb4d72 · Apple M4 Max · darwin/arm64 · 6×300ms · Go 03845e30</text><rect class="portable" x="8" y="55" width="12" height="12" rx="2"/><text class="note" x="26" y="66">portable</text><rect class="simd" x="100" y="55" width="12" height="12" rx="2"/><text class="note" x="118" y="66">SIMD</text><rect class="reference" x="176" y="55" width="12" height="12" rx="2"/><text class="note" x="194" y="66">stable-only context</text><text x="292" y="96" text-anchor="middle">Accepted-input scan</text><text x="517" y="96" text-anchor="middle">Typed owned decode (reused dst)</text><text x="742" y="96" text-anchor="middle">Dynamic owned decode</text><text x="967" y="96" text-anchor="middle">Owned encode</text><text x="8" y="137">simdjson</text><rect class="cell" x="184" y="114" width="217" height="36" rx="2"/><rect class="portable" x="192" y="120" width="54" height="8" rx="2"/><rect class="simd" x="192" y="134" width="54" height="8" rx="2"/><text x="256" y="137">1.42x / 3.07x</text><rect class="cell" x="409" y="114" width="217" height="36" rx="2"/><rect class="portable" x="417" y="120" width="54" height="8" rx="2"/><rect class="simd" x="417" y="134" width="54" height="8" rx="2"/><text x="481" y="137">3.16x / 3.42x</text><rect class="cell" x="634" y="114" width="217" height="36" rx="2"/><rect class="portable" x="642" y="120" width="54" height="8" rx="2"/><rect class="simd" x="642" y="134" width="54" height="8" rx="2"/><text x="706" y="137">3.36x / 3.55x</text><rect class="cell" x="859" y="114" width="217" height="36" rx="2"/><rect class="portable" x="867" y="120" width="54" height="8" rx="2"/><rect class="simd" x="867" y="134" width="54" height="8" rx="2"/><text x="931" y="137">1.74x / 2.16x</text><text x="8" y="181">encoding/json</text><rect class="cell" x="184" y="158" width="217" height="36" rx="2"/><rect class="portable" x="192" y="164" width="54" height="8" rx="2"/><rect class="simd" x="192" y="178" width="54" height="8" rx="2"/><text x="256" y="181">1.00x / 1.00x</text><rect class="cell" x="409" y="158" width="217" height="36" rx="2"/><rect class="portable" x="417" y="164" width="54" height="8" rx="2"/><rect class="simd" x="417" y="178" width="54" height="8" rx="2"/><text x="481" y="181">1.00x / 1.00x</text><rect class="cell" x="634" y="158" width="217" height="36" rx="2"/><rect class="portable" x="642" y="164" width="54" height="8" rx="2"/><rect class="simd" x="642" y="178" width="54" height="8" rx="2"/><text x="706" y="181">1.00x / 1.00x</text><rect class="cell" x="859" y="158" width="217" height="36" rx="2"/><rect class="portable" x="867" y="164" width="54" height="8" rx="2"/><rect class="simd" x="867" y="178" width="54" height="8" rx="2"/><text x="931" y="181">1.00x / 1.00x</text><text x="8" y="225">go-json</text><rect class="cell" x="184" y="202" width="217" height="36" rx="2"/><rect class="portable" x="192" y="208" width="54" height="8" rx="2"/><rect class="simd" x="192" y="222" width="54" height="8" rx="2"/><text x="256" y="225">0.13x / 0.13x</text><rect class="cell" x="409" y="202" width="217" height="36" rx="2"/><rect class="portable" x="417" y="208" width="54" height="8" rx="2"/><rect class="simd" x="417" y="222" width="54" height="8" rx="2"/><text x="481" y="225">2.26x / 2.22x</text><rect class="cell" x="634" y="202" width="217" height="36" rx="2"/><rect class="portable" x="642" y="208" width="54" height="8" rx="2"/><rect class="simd" x="642" y="222" width="54" height="8" rx="2"/><text x="706" y="225">1.92x / 1.89x</text><rect class="cell" x="859" y="202" width="217" height="36" rx="2"/><rect class="portable" x="867" y="208" width="54" height="8" rx="2"/><rect class="simd" x="867" y="222" width="54" height="8" rx="2"/><text x="931" y="225">1.56x / 1.57x</text><text x="8" y="269">Segment</text><rect class="cell" x="184" y="246" width="217" height="36" rx="2"/><rect class="portable" x="192" y="252" width="54" height="8" rx="2"/><rect class="simd" x="192" y="266" width="54" height="8" rx="2"/><text x="256" y="269">0.92x / 0.91x</text><rect class="cell" x="409" y="246" width="217" height="36" rx="2"/><rect class="portable" x="417" y="252" width="54" height="8" rx="2"/><rect class="simd" x="417" y="266" width="54" height="8" rx="2"/><text x="481" y="269">1.54x / 1.51x</text><rect class="cell" x="634" y="246" width="217" height="36" rx="2"/><rect class="portable" x="642" y="252" width="54" height="8" rx="2"/><rect class="simd" x="642" y="266" width="54" height="8" rx="2"/><text x="706" y="269">0.72x / 0.71x</text><rect class="cell" x="859" y="246" width="217" height="36" rx="2"/><rect class="portable" x="867" y="252" width="54" height="8" rx="2"/><rect class="simd" x="867" y="266" width="54" height="8" rx="2"/><text x="931" y="269">1.71x / 1.72x</text><text x="8" y="313">jsoniter</text><rect class="cell" x="184" y="290" width="217" height="36" rx="2"/><rect class="portable" x="192" y="296" width="54" height="8" rx="2"/><rect class="simd" x="192" y="310" width="54" height="8" rx="2"/><text x="256" y="313">0.57x / 0.56x</text><rect class="cell" x="409" y="290" width="217" height="36" rx="2"/><rect class="portable" x="417" y="296" width="54" height="8" rx="2"/><rect class="simd" x="417" y="310" width="54" height="8" rx="2"/><text x="481" y="313">1.49x / 1.47x</text><rect class="cell" x="634" y="290" width="217" height="36" rx="2"/><rect class="portable" x="642" y="296" width="54" height="8" rx="2"/><rect class="simd" x="642" y="310" width="54" height="8" rx="2"/><text x="706" y="313">1.69x / 1.66x</text><rect class="cell" x="859" y="290" width="217" height="36" rx="2"/><rect class="portable" x="867" y="296" width="54" height="8" rx="2"/><rect class="simd" x="867" y="310" width="54" height="8" rx="2"/><text x="931" y="313">0.84x / 0.85x</text><text x="8" y="357">fastjson</text><rect class="cell" x="184" y="334" width="217" height="36" rx="2"/><rect class="portable" x="192" y="340" width="54" height="8" rx="2"/><rect class="simd" x="192" y="354" width="54" height="8" rx="2"/><text x="256" y="357">0.97x / 0.95x</text><rect class="cell" x="409" y="334" width="217" height="36" rx="2"/><text class="muted" x="517" y="357" text-anchor="middle">—</text><rect class="cell" x="634" y="334" width="217" height="36" rx="2"/><text class="muted" x="742" y="357" text-anchor="middle">—</text><rect class="cell" x="859" y="334" width="217" height="36" rx="2"/><text class="muted" x="967" y="357" text-anchor="middle">—</text><text x="8" y="401">encoding/json/v2</text><rect class="cell" x="184" y="378" width="217" height="36" rx="2"/><text class="muted" x="292" y="401" text-anchor="middle">—</text><rect class="cell" x="409" y="378" width="217" height="36" rx="2"/><rect class="portable" x="417" y="384" width="54" height="8" rx="2"/><rect class="simd" x="417" y="398" width="54" height="8" rx="2"/><text x="481" y="401">1.22x / 1.25x</text><rect class="cell" x="634" y="378" width="217" height="36" rx="2"/><rect class="portable" x="642" y="384" width="54" height="8" rx="2"/><rect class="simd" x="642" y="398" width="54" height="8" rx="2"/><text x="706" y="401">1.74x / 1.78x</text><rect class="cell" x="859" y="378" width="217" height="36" rx="2"/><rect class="portable" x="867" y="384" width="54" height="8" rx="2"/><rect class="simd" x="867" y="398" width="54" height="8" rx="2"/><text x="931" y="401">1.00x / 1.01x</text><text x="8" y="445">Sonic (Go 1.26)</text><rect class="cell" x="184" y="422" width="217" height="36" rx="2"/><rect class="reference" x="194" y="431" width="58" height="8" rx="2"/><text x="262" y="441">6.16x stable</text><rect class="cell" x="409" y="422" width="217" height="36" rx="2"/><rect class="reference" x="419" y="431" width="58" height="8" rx="2"/><text x="487" y="441">4.74x stable</text><rect class="cell" x="634" y="422" width="217" height="36" rx="2"/><rect class="reference" x="644" y="431" width="58" height="8" rx="2"/><text x="712" y="441">3.51x stable</text><rect class="cell" x="859" y="422" width="217" height="36" rx="2"/><rect class="reference" x="869" y="431" width="58" height="8" rx="2"/><text x="937" y="441">0.76x stable</text><text class="muted note" x="8" y="476">Accepted-input scan is throughput context, not rejection-equivalence proof. JSON/v2 has no scan row; Sonic uses its supported stable compiler.</text></svg>
