<svg xmlns="http://www.w3.org/2000/svg" width="1000" height="500" viewBox="0 0 1000 500" role="img" aria-labelledby="title desc"><title id="title">Absolute time for one complete corpus pass</title><desc id="desc">Absolute median time to process all seven corpus files once with encoding/json and simdjson. Lower bars are faster.</desc><style>
svg { color-scheme: light dark; }
text { fill:#24292f; font:13px -apple-system,BlinkMacSystemFont,"Segoe UI",sans-serif; }
.heading { font-size:16px; font-weight:500; } .note { font-size:12px; }
.muted { fill:#57606a; } .grid { stroke:#d0d7de; stroke-width:1; }
.baseline { stroke:#8c959f; stroke-width:2; }
.base { fill:#8c959f; } .s1 { fill:#0969da; } .s2 { fill:#8250df; } .s3 { fill:#1a7f37; }
.h1 { fill:#ddf4ff; } .h2 { fill:#b6e3ff; } .h3 { fill:#80ccff; } .h4 { fill:#54aeff; }
@media (prefers-color-scheme: dark) {
text { fill:#f0f6fc; } .muted { fill:#8c959f; } .grid { stroke:#30363d; } .baseline { stroke:#6e7681; }
.base { fill:#8c959f; } .s1 { fill:#58a6ff; } .s2 { fill:#bc8cff; } .s3 { fill:#3fb950; }
.h1 { fill:#102c44; } .h2 { fill:#123c5a; } .h3 { fill:#15557a; } .h4 { fill:#1f6feb; }
}
</style><text class="heading" x="0" y="20">Time to process all seven corpus files once</text><text class="muted note" x="0" y="40">6.33 MiB total · per-file medians summed · lower is better</text><rect class="base" x="80" y="51" width="12" height="12" rx="2"/><text x="98" y="62">encoding/json</text><rect class="s1" x="300" y="51" width="12" height="12" rx="2"/><text x="318" y="62">simdjson</text><line class="grid" x1="80" y1="430.0" x2="980" y2="430.0"/><text class="muted note" x="72" y="434.0" text-anchor="end">0</text><line class="grid" x1="80" y1="365.0" x2="980" y2="365.0"/><text class="muted note" x="72" y="369.0" text-anchor="end">10 ms</text><line class="grid" x1="80" y1="300.0" x2="980" y2="300.0"/><text class="muted note" x="72" y="304.0" text-anchor="end">20 ms</text><line class="grid" x1="80" y1="235.0" x2="980" y2="235.0"/><text class="muted note" x="72" y="239.0" text-anchor="end">30 ms</text><line class="grid" x1="80" y1="170.0" x2="980" y2="170.0"/><text class="muted note" x="72" y="174.0" text-anchor="end">40 ms</text><line class="grid" x1="80" y1="105.0" x2="980" y2="105.0"/><text class="muted note" x="72" y="109.0" text-anchor="end">50 ms</text><rect class="base" x="123.0" y="406.8" width="28" height="23.2" rx="2"/><text class="note" x="152.0" y="401.8" text-anchor="end">3.58 ms</text><rect class="s1" x="159.0" y="418.0" width="28" height="12.0" rx="2"/><text class="note" x="158.0" y="413.0" text-anchor="start">1.85 ms</text><text x="155.0" y="452" text-anchor="middle">Strict</text><text class="muted" x="155.0" y="468" text-anchor="middle">validation</text><rect class="base" x="273.0" y="333.0" width="28" height="97.0" rx="2"/><text class="note" x="302.0" y="328.0" text-anchor="end">14.9 ms</text><rect class="s1" x="309.0" y="402.3" width="28" height="27.7" rx="2"/><text class="note" x="308.0" y="397.3" text-anchor="start">4.26 ms</text><text x="305.0" y="452" text-anchor="middle">Typed owned</text><text class="muted" x="305.0" y="468" text-anchor="middle">decode</text><rect class="base" x="423.0" y="160.9" width="28" height="269.1" rx="2"/><text class="note" x="452.0" y="155.9" text-anchor="end">41.4 ms</text><rect class="s1" x="459.0" y="348.1" width="28" height="81.9" rx="2"/><text class="note" x="458.0" y="343.1" text-anchor="start">12.6 ms</text><text x="455.0" y="452" text-anchor="middle">Dynamic owned</text><text class="muted" x="455.0" y="468" text-anchor="middle">decode</text><rect class="base" x="573.0" y="355.7" width="28" height="74.3" rx="2"/><text class="note" x="602.0" y="350.7" text-anchor="end">11.4 ms</text><rect class="s1" x="609.0" y="403.0" width="28" height="27.0" rx="2"/><text class="note" x="608.0" y="398.0" text-anchor="start">4.15 ms</text><text x="605.0" y="452" text-anchor="middle">Owned</text><text class="muted" x="605.0" y="468" text-anchor="middle">encode</text><rect class="base" x="723.0" y="355.7" width="28" height="74.3" rx="2"/><text class="note" x="752.0" y="350.7" text-anchor="end">11.4 ms</text><rect class="s1" x="759.0" y="414.7" width="28" height="15.3" rx="2"/><text class="note" x="758.0" y="409.7" text-anchor="start">2.36 ms</text><text x="755.0" y="452" text-anchor="middle">Compiled encode</text><text class="muted" x="755.0" y="468" text-anchor="middle">reuse</text><rect class="base" x="873.0" y="144.2" width="28" height="285.8" rx="2"/><text class="note" x="902.0" y="139.2" text-anchor="end">44.0 ms</text><rect class="s1" x="909.0" y="384.4" width="28" height="45.6" rx="2"/><text class="note" x="908.0" y="379.4" text-anchor="start">7.01 ms</text><text x="905.0" y="452" text-anchor="middle">Parse +</text><text class="muted" x="905.0" y="468" text-anchor="middle">complete walk</text></svg>