<svg xmlns="http://www.w3.org/2000/svg" width="1000" height="360" viewBox="0 0 1000 360" role="img" aria-labelledby="title desc"><title id="title">Owned encode time by corpus</title><desc id="desc">Absolute median completion time for each corpus. Every vertical pair has its own scale so the difference remains visible for small inputs. Labels contain the measured time; lower bars are faster.</desc><style>
svg { color-scheme: light dark; }
text { fill:#24292f; font:13px -apple-system,BlinkMacSystemFont,"Segoe UI",sans-serif; }
.heading { font-size:16px; font-weight:500; } .note { font-size:12px; }
.muted { fill:#57606a; } .grid { stroke:#d0d7de; stroke-width:1; }
.baseline { stroke:#8c959f; stroke-width:2; }
.base { fill:#8c959f; } .s1 { fill:#0969da; } .s2 { fill:#8250df; } .s3 { fill:#1a7f37; }
.h1 { fill:#ddf4ff; } .h2 { fill:#b6e3ff; } .h3 { fill:#80ccff; } .h4 { fill:#54aeff; }
@media (prefers-color-scheme: dark) {
text { fill:#f0f6fc; } .muted { fill:#8c959f; } .grid { stroke:#30363d; } .baseline { stroke:#6e7681; }
.base { fill:#8c959f; } .s1 { fill:#58a6ff; } .s2 { fill:#bc8cff; } .s3 { fill:#3fb950; }
.h1 { fill:#102c44; } .h2 { fill:#123c5a; } .h3 { fill:#15557a; } .h4 { fill:#1f6feb; }
}
</style><text class="heading" x="0" y="20">Owned encode time by corpus</text><text class="muted note" x="0" y="40">Each corpus has its own vertical scale · labels are absolute median time · lower is better</text><rect class="base" x="0" y="51" width="12" height="12" rx="2"/><text x="18" y="62">encoding/json</text><rect class="s1" x="220" y="51" width="12" height="12" rx="2"/><text x="238" y="62">simdjson</text><line class="grid" x1="8.0" y1="282" x2="134.9" y2="282"/><rect class="base" x="36.4" y="102.0" width="28" height="180.0" rx="2"/><text class="note" x="50.4" y="97.0" text-anchor="middle">649 us</text><rect class="s1" x="78.4" y="171.4" width="28" height="110.6" rx="2"/><text class="note" x="92.4" y="166.4" text-anchor="middle">399 us</text><text x="71.4" y="304" text-anchor="middle">Canada</text><text class="muted" x="71.4" y="320" text-anchor="middle">geometry</text><line class="grid" x1="150.9" y1="282" x2="277.7" y2="282"/><rect class="base" x="179.3" y="102.0" width="28" height="180.0" rx="2"/><text class="note" x="193.3" y="97.0" text-anchor="middle">1.08 ms</text><rect class="s1" x="221.3" y="210.4" width="28" height="71.6" rx="2"/><text class="note" x="235.3" y="205.4" text-anchor="middle">428 us</text><text x="214.3" y="304" text-anchor="middle">CITM</text><text class="muted" x="214.3" y="320" text-anchor="middle">catalog</text><line class="grid" x1="293.7" y1="282" x2="420.6" y2="282"/><rect class="base" x="322.1" y="102.0" width="28" height="180.0" rx="2"/><text class="note" x="336.1" y="97.0" text-anchor="middle">3.40 ms</text><rect class="s1" x="364.1" y="209.5" width="28" height="72.5" rx="2"/><text class="note" x="378.1" y="204.5" text-anchor="middle">1.37 ms</text><text x="357.1" y="304" text-anchor="middle">Go</text><text class="muted" x="357.1" y="320" text-anchor="middle">source</text><line class="grid" x1="436.6" y1="282" x2="563.4" y2="282"/><rect class="base" x="465.0" y="102.0" width="28" height="180.0" rx="2"/><text class="note" x="479.0" y="97.0" text-anchor="middle">22.9 us</text><rect class="s1" x="507.0" y="221.6" width="28" height="60.4" rx="2"/><text class="note" x="521.0" y="216.6" text-anchor="middle">7.7 us</text><text x="500.0" y="304" text-anchor="middle">Escaped</text><text class="muted" x="500.0" y="320" text-anchor="middle">strings</text><line class="grid" x1="579.4" y1="282" x2="706.3" y2="282"/><rect class="base" x="607.9" y="102.0" width="28" height="180.0" rx="2"/><text class="note" x="621.9" y="97.0" text-anchor="middle">23.0 us</text><rect class="s1" x="649.9" y="223.0" width="28" height="59.0" rx="2"/><text class="note" x="663.9" y="218.0" text-anchor="middle">7.5 us</text><text x="642.9" y="304" text-anchor="middle">Unicode</text><text class="muted" x="642.9" y="320" text-anchor="middle">strings</text><line class="grid" x1="722.3" y1="282" x2="849.1" y2="282"/><rect class="base" x="750.7" y="102.0" width="28" height="180.0" rx="2"/><text class="note" x="764.7" y="97.0" text-anchor="middle">6.40 ms</text><rect class="s1" x="792.7" y="220.7" width="28" height="61.3" rx="2"/><text class="note" x="806.7" y="215.7" text-anchor="middle">2.18 ms</text><text x="785.7" y="304" text-anchor="middle">Synthea</text><text class="muted" x="785.7" y="320" text-anchor="middle">FHIR</text><line class="grid" x1="865.1" y1="282" x2="992.0" y2="282"/><rect class="base" x="893.6" y="102.0" width="28" height="180.0" rx="2"/><text class="note" x="907.6" y="97.0" text-anchor="middle">759 us</text><rect class="s1" x="935.6" y="199.1" width="28" height="82.9" rx="2"/><text class="note" x="949.6" y="194.1" text-anchor="middle">350 us</text><text x="928.6" y="304" text-anchor="middle">Twitter</text><text class="muted" x="928.6" y="320" text-anchor="middle">status</text></svg>