<svg xmlns="http://www.w3.org/2000/svg" width="1000" height="660" viewBox="0 0 1000 660" role="img" aria-labelledby="title desc"><title id="title">Absolute SIMD and portable-Go completion time</title><desc id="desc">Absolute time for one pass over all seven payloads with the SIMD and portable-Go paths. Every vertical pair has its own scale; labels contain the measured time and lower bars are faster.</desc><style>
svg { color-scheme: light dark; }
text { fill:#24292f; font:13px -apple-system,BlinkMacSystemFont,"Segoe UI",sans-serif; }
.heading { font-size:16px; font-weight:500; } .note { font-size:12px; }
.muted { fill:#57606a; } .grid { stroke:#d0d7de; stroke-width:1; }
.baseline { stroke:#8c959f; stroke-width:2; }
.base { fill:#8c959f; } .s1 { fill:#0969da; } .s2 { fill:#8250df; } .s3 { fill:#1a7f37; }
.h1 { fill:#ddf4ff; } .h2 { fill:#b6e3ff; } .h3 { fill:#80ccff; } .h4 { fill:#54aeff; }
@media (prefers-color-scheme: dark) {
text { fill:#f0f6fc; } .muted { fill:#8c959f; } .grid { stroke:#30363d; } .baseline { stroke:#6e7681; }
.base { fill:#8c959f; } .s1 { fill:#58a6ff; } .s2 { fill:#bc8cff; } .s3 { fill:#3fb950; }
.h1 { fill:#102c44; } .h2 { fill:#123c5a; } .h3 { fill:#15557a; } .h4 { fill:#1f6feb; }
}
</style><text class="heading" x="0" y="20">SIMD and portable-Go completion time</text><text class="muted note" x="0" y="40">One pass over all seven payloads · each pair has its own vertical scale · lower is better</text><rect class="base" x="0" y="51" width="12" height="12" rx="2"/><text x="18" y="62">portable Go</text><rect class="s1" x="220" y="51" width="12" height="12" rx="2"/><text x="238" y="62">SIMD</text><line class="grid" x1="54.0" y1="210.0" x2="279.0" y2="210.0"/><rect class="base" x="123.0" y="110.0" width="34" height="100.0" rx="2"/><text class="note" x="140.0" y="105.0" text-anchor="middle">2.79 ms</text><rect class="s1" x="175.0" y="141.2" width="34" height="68.8" rx="2"/><text class="note" x="192.0" y="136.2" text-anchor="middle">1.92 ms</text><text x="166.0" y="239" text-anchor="middle">Validation</text><line class="grid" x1="387.0" y1="210.0" x2="612.0" y2="210.0"/><rect class="base" x="456.0" y="110.0" width="34" height="100.0" rx="2"/><text class="note" x="473.0" y="105.0" text-anchor="middle">13.7 ms</text><rect class="s1" x="508.0" y="110.0" width="34" height="100.0" rx="2"/><text class="note" x="525.0" y="105.0" text-anchor="middle">13.7 ms</text><text x="499.0" y="232" text-anchor="middle">Dynamic</text><text class="muted" x="499.0" y="248" text-anchor="middle">owned</text><line class="grid" x1="720.0" y1="210.0" x2="945.0" y2="210.0"/><rect class="base" x="789.0" y="110.0" width="34" height="100.0" rx="2"/><text class="note" x="806.0" y="105.0" text-anchor="middle">12.9 ms</text><rect class="s1" x="841.0" y="110.1" width="34" height="99.9" rx="2"/><text class="note" x="858.0" y="105.1" text-anchor="middle">12.9 ms</text><text x="832.0" y="232" text-anchor="middle">Dynamic</text><text class="muted" x="832.0" y="248" text-anchor="middle">zero-copy</text><line class="grid" x1="54.0" y1="390.0" x2="279.0" y2="390.0"/><rect class="base" x="123.0" y="290.0" width="34" height="100.0" rx="2"/><text class="note" x="140.0" y="285.0" text-anchor="middle">8.44 ms</text><rect class="s1" x="175.0" y="299.9" width="34" height="90.1" rx="2"/><text class="note" x="192.0" y="294.9" text-anchor="middle">7.60 ms</text><text x="166.0" y="412" text-anchor="middle">Parse +</text><text class="muted" x="166.0" y="428" text-anchor="middle">complete walk</text><line class="grid" x1="387.0" y1="390.0" x2="612.0" y2="390.0"/><rect class="base" x="456.0" y="290.0" width="34" height="100.0" rx="2"/><text class="note" x="473.0" y="285.0" text-anchor="middle">4.64 ms</text><rect class="s1" x="508.0" y="291.4" width="34" height="98.6" rx="2"/><text class="note" x="525.0" y="286.4" text-anchor="middle">4.57 ms</text><text x="499.0" y="412" text-anchor="middle">Typed</text><text class="muted" x="499.0" y="428" text-anchor="middle">owned</text><line class="grid" x1="720.0" y1="390.0" x2="945.0" y2="390.0"/><rect class="base" x="789.0" y="290.0" width="34" height="100.0" rx="2"/><text class="note" x="806.0" y="285.0" text-anchor="middle">3.69 ms</text><rect class="s1" x="841.0" y="292.7" width="34" height="97.3" rx="2"/><text class="note" x="858.0" y="287.7" text-anchor="middle">3.59 ms</text><text x="832.0" y="412" text-anchor="middle">Typed</text><text class="muted" x="832.0" y="428" text-anchor="middle">zero-copy</text><line class="grid" x1="54.0" y1="570.0" x2="279.0" y2="570.0"/><rect class="base" x="123.0" y="470.0" width="34" height="100.0" rx="2"/><text class="note" x="140.0" y="465.0" text-anchor="middle">7.44 ms</text><rect class="s1" x="175.0" y="472.6" width="34" height="97.4" rx="2"/><text class="note" x="192.0" y="467.6" text-anchor="middle">7.25 ms</text><text x="166.0" y="592" text-anchor="middle">Encode</text><text class="muted" x="166.0" y="608" text-anchor="middle">owned</text><line class="grid" x1="387.0" y1="570.0" x2="612.0" y2="570.0"/><rect class="base" x="456.0" y="470.0" width="34" height="100.0" rx="2"/><text class="note" x="473.0" y="465.0" text-anchor="middle">2.68 ms</text><rect class="s1" x="508.0" y="478.6" width="34" height="91.4" rx="2"/><text class="note" x="525.0" y="473.6" text-anchor="middle">2.45 ms</text><text x="499.0" y="592" text-anchor="middle">Encode compiled</text><text class="muted" x="499.0" y="608" text-anchor="middle">reuse</text><line class="grid" x1="720.0" y1="570.0" x2="945.0" y2="570.0"/><rect class="base" x="789.0" y="470.0" width="34" height="100.0" rx="2"/><text class="note" x="806.0" y="465.0" text-anchor="middle">2.98 ms</text><rect class="s1" x="841.0" y="502.0" width="34" height="68.0" rx="2"/><text class="note" x="858.0" y="497.0" text-anchor="middle">2.02 ms</text><text x="832.0" y="592" text-anchor="middle">Reusable structural</text><text class="muted" x="832.0" y="608" text-anchor="middle">index</text></svg>