<svg xmlns="http://www.w3.org/2000/svg" width="1000" height="972" viewBox="0 0 1000 972" role="img" aria-labelledby="title desc"><title id="title">Portable and SIMD absolute time by operation</title><desc id="desc">Absolute geometric-mean time per operation over seven corpus files. Each operation has its own zero-based scale; lower is faster. Data (portable/SIMD absolute time): Strict validation 180 µs/81.2 µs (6/7 SIMD wins); Dynamic owned decode 622 µs/559 µs (7/7 SIMD wins); Dynamic zero-copy 585 µs/520 µs (7/7 SIMD wins); Parse + complete walk 499 µs/335 µs (7/7 SIMD wins); Typed owned decode (reused dst) 277 µs/246 µs (6/7 SIMD wins); Typed zero-copy 229 µs/198 µs (6/7 SIMD wins); Owned encode 266 µs/201 µs (6/7 SIMD wins); Compiled encode reuse 179 µs/117 µs (7/7 SIMD wins); Reusable structural index 189 µs/88.3 µs (7/7 SIMD wins). Source: benchmarks/results/latest.json. Snapshot 8d6fed7c · Apple M4 Max · darwin/arm64 · 6×300ms · Go 03845e30.</desc><style>
svg { color-scheme: light dark; }
text { fill:#24292f; font:15px -apple-system,BlinkMacSystemFont,"Segoe UI",sans-serif; }
.heading { font-size:20px; font-weight:500; }
.note { font-size:13px; }
.muted { fill:#57606a; }
.grid { stroke:#d0d7de; stroke-width:1; }
.baseline { stroke:#8c959f; stroke-width:2; }
.portable { fill:#8250df; }
.simd { fill:#0969da; }
.reference { fill:#8c959f; }
.peer { fill:#1a7f37; }
.cell { fill:#f6f8fa; }
@media (prefers-color-scheme: dark) {
text { fill:#f0f6fc; }
.muted { fill:#8c959f; }
.grid { stroke:#30363d; }
.baseline { stroke:#6e7681; }
.portable { fill:#bc8cff; }
.simd { fill:#58a6ff; }
.reference { fill:#8c959f; }
.peer { fill:#3fb950; }
.cell { fill:#161b22; }
}
</style><text class="heading" x="8" y="22">Portable and SIMD time by operation</text><text class="muted note" x="8" y="43">Absolute geomean time/op across seven payloads · independent scales · lower is faster · 8d6fed7c · Apple M4 Max · darwin/arm64 · 6×300ms · Go 03845e30</text><text x="16.0" y="100.0">Strict validation</text><line class="grid" x1="106.0" y1="118.0" x2="106.0" y2="216.0"/><text class="muted note" x="106.0" y="115.0" text-anchor="middle">0 ns</text><line class="grid" x1="245.0" y1="118.0" x2="245.0" y2="216.0"/><text class="muted note" x="245.0" y="115.0" text-anchor="middle">100 µs</text><line class="grid" x1="384.0" y1="118.0" x2="384.0" y2="216.0"/><text class="muted note" x="384.0" y="115.0" text-anchor="middle">200 µs</text><text class="note" x="16.0" y="153.0">portable</text><rect class="portable" x="106.0" y="142.0" width="250.7" height="14" rx="2"/><text class="note" x="361.7" y="153.0">180 µs</text><text class="note" x="16.0" y="191.0">SIMD</text><rect class="simd" x="106.0" y="180.0" width="112.8" height="14" rx="2"/><text class="note" x="223.8" y="191.0">81.2 µs</text><text class="muted note" x="16.0" y="235.0">SIMD lower on 6 of 7 payloads</text><text x="512.0" y="100.0">Dynamic owned decode</text><line class="grid" x1="602.0" y1="118.0" x2="602.0" y2="216.0"/><text class="muted note" x="602.0" y="115.0" text-anchor="middle">0 ns</text><line class="grid" x1="741.0" y1="118.0" x2="741.0" y2="216.0"/><text class="muted note" x="741.0" y="115.0" text-anchor="middle">375 µs</text><line class="grid" x1="880.0" y1="118.0" x2="880.0" y2="216.0"/><text class="muted note" x="880.0" y="115.0" text-anchor="middle">750 µs</text><text class="note" x="512.0" y="153.0">portable</text><rect class="portable" x="602.0" y="142.0" width="230.5" height="14" rx="2"/><text class="note" x="837.5" y="153.0">622 µs</text><text class="note" x="512.0" y="191.0">SIMD</text><rect class="simd" x="602.0" y="180.0" width="207.3" height="14" rx="2"/><text class="note" x="814.3" y="191.0">559 µs</text><text class="muted note" x="512.0" y="235.0">SIMD lower on 7 of 7 payloads</text><text x="16.0" y="274.0">Dynamic zero-copy</text><line class="grid" x1="106.0" y1="292.0" x2="106.0" y2="390.0"/><text class="muted note" x="106.0" y="289.0" text-anchor="middle">0 ns</text><line class="grid" x1="245.0" y1="292.0" x2="245.0" y2="390.0"/><text class="muted note" x="245.0" y="289.0" text-anchor="middle">375 µs</text><line class="grid" x1="384.0" y1="292.0" x2="384.0" y2="390.0"/><text class="muted note" x="384.0" y="289.0" text-anchor="middle">750 µs</text><text class="note" x="16.0" y="327.0">portable</text><rect class="portable" x="106.0" y="316.0" width="216.8" height="14" rx="2"/><text class="note" x="327.8" y="327.0">585 µs</text><text class="note" x="16.0" y="365.0">SIMD</text><rect class="simd" x="106.0" y="354.0" width="192.8" height="14" rx="2"/><text class="note" x="303.8" y="365.0">520 µs</text><text class="muted note" x="16.0" y="409.0">SIMD lower on 7 of 7 payloads</text><text x="512.0" y="274.0">Parse + complete walk</text><line class="grid" x1="602.0" y1="292.0" x2="602.0" y2="390.0"/><text class="muted note" x="602.0" y="289.0" text-anchor="middle">0 ns</text><line class="grid" x1="741.0" y1="292.0" x2="741.0" y2="390.0"/><text class="muted note" x="741.0" y="289.0" text-anchor="middle">375 µs</text><line class="grid" x1="880.0" y1="292.0" x2="880.0" y2="390.0"/><text class="muted note" x="880.0" y="289.0" text-anchor="middle">750 µs</text><text class="note" x="512.0" y="327.0">portable</text><rect class="portable" x="602.0" y="316.0" width="184.9" height="14" rx="2"/><text class="note" x="791.9" y="327.0">499 µs</text><text class="note" x="512.0" y="365.0">SIMD</text><rect class="simd" x="602.0" y="354.0" width="124.1" height="14" rx="2"/><text class="note" x="731.1" y="365.0">335 µs</text><text class="muted note" x="512.0" y="409.0">SIMD lower on 7 of 7 payloads</text><text x="16.0" y="448.0">Typed owned decode (reused dst)</text><line class="grid" x1="106.0" y1="466.0" x2="106.0" y2="564.0"/><text class="muted note" x="106.0" y="463.0" text-anchor="middle">0 ns</text><line class="grid" x1="245.0" y1="466.0" x2="245.0" y2="564.0"/><text class="muted note" x="245.0" y="463.0" text-anchor="middle">150 µs</text><line class="grid" x1="384.0" y1="466.0" x2="384.0" y2="564.0"/><text class="muted note" x="384.0" y="463.0" text-anchor="middle">300 µs</text><text class="note" x="16.0" y="501.0">portable</text><rect class="portable" x="106.0" y="490.0" width="256.3" height="14" rx="2"/><text class="note" x="367.3" y="501.0">277 µs</text><text class="note" x="16.0" y="539.0">SIMD</text><rect class="simd" x="106.0" y="528.0" width="227.7" height="14" rx="2"/><text class="note" x="338.7" y="539.0">246 µs</text><text class="muted note" x="16.0" y="583.0">SIMD lower on 6 of 7 payloads</text><text x="512.0" y="448.0">Typed zero-copy</text><line class="grid" x1="602.0" y1="466.0" x2="602.0" y2="564.0"/><text class="muted note" x="602.0" y="463.0" text-anchor="middle">0 ns</text><line class="grid" x1="741.0" y1="466.0" x2="741.0" y2="564.0"/><text class="muted note" x="741.0" y="463.0" text-anchor="middle">125 µs</text><line class="grid" x1="880.0" y1="466.0" x2="880.0" y2="564.0"/><text class="muted note" x="880.0" y="463.0" text-anchor="middle">250 µs</text><text class="note" x="512.0" y="501.0">portable</text><rect class="portable" x="602.0" y="490.0" width="254.2" height="14" rx="2"/><text class="note" x="861.2" y="501.0">229 µs</text><text class="note" x="512.0" y="539.0">SIMD</text><rect class="simd" x="602.0" y="528.0" width="220.4" height="14" rx="2"/><text class="note" x="827.4" y="539.0">198 µs</text><text class="muted note" x="512.0" y="583.0">SIMD lower on 6 of 7 payloads</text><text x="16.0" y="622.0">Owned encode</text><line class="grid" x1="106.0" y1="640.0" x2="106.0" y2="738.0"/><text class="muted note" x="106.0" y="637.0" text-anchor="middle">0 ns</text><line class="grid" x1="245.0" y1="640.0" x2="245.0" y2="738.0"/><text class="muted note" x="245.0" y="637.0" text-anchor="middle">150 µs</text><line class="grid" x1="384.0" y1="640.0" x2="384.0" y2="738.0"/><text class="muted note" x="384.0" y="637.0" text-anchor="middle">300 µs</text><text class="note" x="16.0" y="675.0">portable</text><rect class="portable" x="106.0" y="664.0" width="246.1" height="14" rx="2"/><text class="note" x="357.1" y="675.0">266 µs</text><text class="note" x="16.0" y="713.0">SIMD</text><rect class="simd" x="106.0" y="702.0" width="186.3" height="14" rx="2"/><text class="note" x="297.3" y="713.0">201 µs</text><text class="muted note" x="16.0" y="757.0">SIMD lower on 6 of 7 payloads</text><text x="512.0" y="622.0">Compiled encode reuse</text><line class="grid" x1="602.0" y1="640.0" x2="602.0" y2="738.0"/><text class="muted note" x="602.0" y="637.0" text-anchor="middle">0 ns</text><line class="grid" x1="741.0" y1="640.0" x2="741.0" y2="738.0"/><text class="muted note" x="741.0" y="637.0" text-anchor="middle">100 µs</text><line class="grid" x1="880.0" y1="640.0" x2="880.0" y2="738.0"/><text class="muted note" x="880.0" y="637.0" text-anchor="middle">200 µs</text><text class="note" x="512.0" y="675.0">portable</text><rect class="portable" x="602.0" y="664.0" width="248.4" height="14" rx="2"/><text class="note" x="855.4" y="675.0">179 µs</text><text class="note" x="512.0" y="713.0">SIMD</text><rect class="simd" x="602.0" y="702.0" width="162.5" height="14" rx="2"/><text class="note" x="769.5" y="713.0">117 µs</text><text class="muted note" x="512.0" y="757.0">SIMD lower on 7 of 7 payloads</text><text x="16.0" y="796.0">Reusable structural index</text><line class="grid" x1="106.0" y1="814.0" x2="106.0" y2="912.0"/><text class="muted note" x="106.0" y="811.0" text-anchor="middle">0 ns</text><line class="grid" x1="245.0" y1="814.0" x2="245.0" y2="912.0"/><text class="muted note" x="245.0" y="811.0" text-anchor="middle">100 µs</text><line class="grid" x1="384.0" y1="814.0" x2="384.0" y2="912.0"/><text class="muted note" x="384.0" y="811.0" text-anchor="middle">200 µs</text><text class="note" x="16.0" y="849.0">portable</text><rect class="portable" x="106.0" y="838.0" width="262.8" height="14" rx="2"/><text class="note" x="373.8" y="849.0">189 µs</text><text class="note" x="16.0" y="887.0">SIMD</text><rect class="simd" x="106.0" y="876.0" width="122.8" height="14" rx="2"/><text class="note" x="233.8" y="887.0">88.3 µs</text><text class="muted note" x="16.0" y="931.0">SIMD lower on 7 of 7 payloads</text></svg>
