<svg xmlns="http://www.w3.org/2000/svg" width="1000" height="442" viewBox="0 0 1000 442" role="img" aria-labelledby="title desc"><title id="title">SIMD uplift over portable Go</title><desc id="desc">Geometric-mean portable-Go time divided by SIMD time over seven corpus files. Values above one mean SIMD is faster. Data: Strict validation 2.211x (6/7 wins); Dynamic owned decode 1.069x (6/7 wins); Dynamic zero-copy 1.078x (5/7 wins); Parse + complete walk 1.368x (6/7 wins); Typed owned decode (reused dst) 1.096x (4/7 wins); Typed zero-copy 1.141x (6/7 wins); Owned encode 1.247x (6/7 wins); Compiled encode reuse 1.467x (6/7 wins); Reusable structural index 2.108x (7/7 wins). Source: benchmarks/results/latest.json. Snapshot 63eb4d72 · Apple M4 Max · darwin/arm64 · 6×300ms · Go 03845e30.</desc><style>
svg { color-scheme: light dark; }
text { fill:#24292f; font:13px -apple-system,BlinkMacSystemFont,"Segoe UI",sans-serif; }
.heading { font-size:17px; font-weight:500; }
.note { font-size:12px; }
.muted { fill:#57606a; }
.grid { stroke:#d0d7de; stroke-width:1; }
.baseline { stroke:#8c959f; stroke-width:2; }
.portable { fill:#8250df; }
.simd { fill:#0969da; }
.reference { fill:#8c959f; }
.peer { fill:#1a7f37; }
.cell { fill:#f6f8fa; }
@media (prefers-color-scheme: dark) {
text { fill:#f0f6fc; }
.muted { fill:#8c959f; }
.grid { stroke:#30363d; }
.baseline { stroke:#6e7681; }
.portable { fill:#bc8cff; }
.simd { fill:#58a6ff; }
.reference { fill:#8c959f; }
.peer { fill:#3fb950; }
.cell { fill:#161b22; }
}
</style><text class="heading" x="8" y="22">SIMD uplift over portable Go</text><text class="muted note" x="8" y="43">Geomean across seven payloads · 1x is equal · higher is faster · 63eb4d72 · Apple M4 Max · darwin/arm64 · 6×300ms · Go 03845e30</text><line class="grid" x1="270.0" y1="62" x2="270.0" y2="420"/><text class="muted note" x="270.0" y="78" text-anchor="middle">0x</text><line class="grid" x1="330.0" y1="62" x2="330.0" y2="420"/><text class="muted note" x="330.0" y="78" text-anchor="middle">0.25x</text><line class="grid" x1="390.0" y1="62" x2="390.0" y2="420"/><text class="muted note" x="390.0" y="78" text-anchor="middle">0.5x</text><line class="grid" x1="450.0" y1="62" x2="450.0" y2="420"/><text class="muted note" x="450.0" y="78" text-anchor="middle">0.75x</text><line class="baseline" x1="510.0" y1="62" x2="510.0" y2="420"/><text class="muted note" x="510.0" y="78" text-anchor="middle">1x</text><line class="grid" x1="570.0" y1="62" x2="570.0" y2="420"/><text class="muted note" x="570.0" y="78" text-anchor="middle">1.25x</text><line class="grid" x1="630.0" y1="62" x2="630.0" y2="420"/><text class="muted note" x="630.0" y="78" text-anchor="middle">1.5x</text><line class="grid" x1="690.0" y1="62" x2="690.0" y2="420"/><text class="muted note" x="690.0" y="78" text-anchor="middle">1.75x</text><line class="grid" x1="750.0" y1="62" x2="750.0" y2="420"/><text class="muted note" x="750.0" y="78" text-anchor="middle">2x</text><line class="grid" x1="810.0" y1="62" x2="810.0" y2="420"/><text class="muted note" x="810.0" y="78" text-anchor="middle">2.25x</text><text x="8" y="98.0">Strict validation</text><rect class="simd" x="270.0" y="84.0" width="530.7" height="18" rx="2"/><text x="808.7" y="98.0">2.211x</text><text class="muted note" x="992" y="98.0" text-anchor="end">6/7 wins</text><text x="8" y="134.0">Dynamic owned decode</text><rect class="simd" x="270.0" y="120.0" width="256.6" height="18" rx="2"/><text x="534.6" y="134.0">1.069x</text><text class="muted note" x="992" y="134.0" text-anchor="end">6/7 wins</text><text x="8" y="170.0">Dynamic zero-copy</text><rect class="simd" x="270.0" y="156.0" width="258.8" height="18" rx="2"/><text x="536.8" y="170.0">1.078x</text><text class="muted note" x="992" y="170.0" text-anchor="end">5/7 wins</text><text x="8" y="206.0">Parse + complete walk</text><rect class="simd" x="270.0" y="192.0" width="328.3" height="18" rx="2"/><text x="606.3" y="206.0">1.368x</text><text class="muted note" x="992" y="206.0" text-anchor="end">6/7 wins</text><text x="8" y="242.0">Typed owned decode (reused dst)</text><rect class="simd" x="270.0" y="228.0" width="263.1" height="18" rx="2"/><text x="541.1" y="242.0">1.096x</text><text class="muted note" x="992" y="242.0" text-anchor="end">4/7 wins</text><text x="8" y="278.0">Typed zero-copy</text><rect class="simd" x="270.0" y="264.0" width="273.9" height="18" rx="2"/><text x="551.9" y="278.0">1.141x</text><text class="muted note" x="992" y="278.0" text-anchor="end">6/7 wins</text><text x="8" y="314.0">Owned encode</text><rect class="simd" x="270.0" y="300.0" width="299.4" height="18" rx="2"/><text x="577.4" y="314.0">1.247x</text><text class="muted note" x="992" y="314.0" text-anchor="end">6/7 wins</text><text x="8" y="350.0">Compiled encode reuse</text><rect class="simd" x="270.0" y="336.0" width="352.2" height="18" rx="2"/><text x="630.2" y="350.0">1.467x</text><text class="muted note" x="992" y="350.0" text-anchor="end">6/7 wins</text><text x="8" y="386.0">Reusable structural index</text><rect class="simd" x="270.0" y="372.0" width="505.9" height="18" rx="2"/><text x="783.9" y="386.0">2.108x</text><text class="muted note" x="992" y="386.0" text-anchor="end">7/7 wins</text></svg>
