<svg xmlns="http://www.w3.org/2000/svg" width="1000" height="436" viewBox="0 0 1000 436" role="img" aria-labelledby="title desc"><title id="title">Go speedup over C++ semantic traversal</title><desc id="desc">C++ time divided by Go time for the identical parse and semantic digest contract. One times is equal performance; larger values mean Go is faster. Both absolute times are labeled.</desc><style>
svg { color-scheme: light dark; }
text { fill:#24292f; font:13px -apple-system,BlinkMacSystemFont,"Segoe UI",sans-serif; }
.heading { font-size:16px; font-weight:500; } .note { font-size:12px; }
.muted { fill:#57606a; } .grid { stroke:#d0d7de; stroke-width:1; }
.baseline { stroke:#8c959f; stroke-width:2; }
.s1 { fill:#0969da; } .s2 { fill:#8250df; } .s3 { fill:#1a7f37; }
.h1 { fill:#ddf4ff; } .h2 { fill:#b6e3ff; } .h3 { fill:#80ccff; } .h4 { fill:#54aeff; }
@media (prefers-color-scheme: dark) {
text { fill:#f0f6fc; } .muted { fill:#8c959f; } .grid { stroke:#30363d; } .baseline { stroke:#6e7681; }
.s1 { fill:#58a6ff; } .s2 { fill:#bc8cff; } .s3 { fill:#3fb950; }
.h1 { fill:#102c44; } .h2 { fill:#123c5a; } .h3 { fill:#15557a; } .h4 { fill:#1f6feb; }
}
</style><text class="heading" x="0" y="20">Go speedup over C++</text><text class="muted note" x="0" y="40">C++ time ÷ Go time · 1× is equal · higher is faster</text><line class="grid" x1="180.0" y1="70" x2="180.0" y2="418"/><text class="muted note" x="180.0" y="62" text-anchor="middle">0.0×</text><line class="grid" x1="295.0" y1="70" x2="295.0" y2="418"/><text class="muted note" x="295.0" y="62" text-anchor="middle">0.5×</text><line class="baseline" x1="410.0" y1="70" x2="410.0" y2="418"/><text class="muted note" x="410.0" y="62" text-anchor="middle">1× equal</text><line class="grid" x1="525.0" y1="70" x2="525.0" y2="418"/><text class="muted note" x="525.0" y="62" text-anchor="middle">1.5×</text><line class="grid" x1="640.0" y1="70" x2="640.0" y2="418"/><text class="muted note" x="640.0" y="62" text-anchor="middle">2.0×</text><text x="168" y="96" text-anchor="end">Canada geometry</text><rect class="s1" x="180" y="81" width="241.9" height="20" rx="3"/><text x="428.9" y="96">1.052× · Go 341.102 us · C++ 358.803 us</text><text x="168" y="142" text-anchor="end">CITM catalog</text><rect class="s1" x="180" y="127" width="257.9" height="20" rx="3"/><text x="444.9" y="142">1.121× · Go 892.307 us · C++ 1.000670 ms</text><text x="168" y="188" text-anchor="end">Go source</text><rect class="s1" x="180" y="173" width="274.5" height="20" rx="3"/><text x="461.5" y="188">1.194× · Go 2.749569 ms · C++ 3.281954 ms</text><text x="168" y="234" text-anchor="end">Escaped strings</text><rect class="s1" x="180" y="219" width="404.6" height="20" rx="3"/><text x="591.6" y="234">1.759× · Go 39.530 us · C++ 69.538 us</text><text x="168" y="280" text-anchor="end">Unicode strings</text><rect class="s1" x="180" y="265" width="235.6" height="20" rx="3"/><text x="422.6" y="280">1.024× · Go 22.096 us · C++ 22.636 us</text><text x="168" y="326" text-anchor="end">Synthea FHIR</text><rect class="s1" x="180" y="311" width="263.7" height="20" rx="3"/><text x="450.7" y="326">1.146× · Go 1.603395 ms · C++ 1.838083 ms</text><text x="168" y="372" text-anchor="end">Twitter status</text><rect class="s1" x="180" y="357" width="250.7" height="20" rx="3"/><text x="437.7" y="372">1.090× · Go 624.488 us · C++ 680.820 us</text></svg>